<svg version="1.2" xmlns="http://www.w3.org/2000/svg" viewBox="0 0 150 150" width="150" height="150">
	<style>
		.s0 { fill: #000000 } 
		.s1 { fill: #ffffff } 
	</style>
	<g id="&lt;Group&gt;">
		<g id="&lt;Group&gt;">
			<path id="&lt;Compound Path&gt;" fill-rule="evenodd" class="s0" d="m145.63 98.6c0 26.5-21.49 48-48 48h-95.46v-95.46c0-26.51 21.49-48 48-48h95.46zm-95.46-89.45c-23.15 0-42 18.84-42 42v89.45h89.46c23.16 0 42-18.84 42-42v-89.45z"/>
		</g>
		<path id="&lt;Path&gt;" class="s0" d="m20.51 74.87c0 29.49 23.9 53.39 53.39 53.39 29.49 0 53.39-23.9 53.39-53.39 0-29.49-23.9-53.39-53.39-53.39-29.49 0-53.39 23.9-53.39 53.39z"/>
		<path id="&lt;Compound Path&gt;" fill-rule="evenodd" class="s1" d="m60.13 93.8h-17.51v-38.84h18.78q7.1 0.1 10.07 4.13 1.78 2.48 1.78 5.93 0 3.56-1.8 5.72-1.01 1.22-2.96 2.22 2.97 1.08 4.49 3.42 1.51 2.35 1.51 5.69 0 3.46-1.73 6.2-1.1 1.82-2.75 3.06-1.86 1.42-4.39 1.95-2.53 0.52-5.49 0.52zm-9.76-23.53h9.44q2.54 0 4.11-0.96 1.58-0.97 1.58-3.42 0-2.71-2.09-3.58-1.8-0.61-4.59-0.61h-8.45zm9.44 16.79q2.52 0 3.93-0.68 2.55-1.27 2.55-4.86 0-3.03-2.47-4.16-1.38-0.63-3.89-0.66h-9.56v10.36z"/>
		<g id="&lt;Group&gt;">
			<path id="&lt;Compound Path&gt;" fill-rule="evenodd" class="s1" d="m76.68 79.74q0-7.46 3.96-11.44 3.96-3.99 10.27-3.99 3.76 0 6.76 1.35 3.01 1.34 4.96 4.25 1.77 2.56 2.29 5.94 0.31 1.98 0.25 5.7h-20.92q0.17 4.32 3 6.06 1.72 1.08 4.14 1.08 2.57 0 4.17-1.32 0.88-0.71 1.55-1.97h7.67q-0.3 2.55-2.79 5.19-3.85 4.19-10.8 4.19-5.74 0-10.12-3.54-4.38-3.53-4.39-11.5zm7.75-3.15h12.94q-0.2-2.99-2-4.54-1.79-1.54-4.45-1.54-2.89 0-4.49 1.64-1.59 1.64-2 4.44z"/>
			<path id="&lt;Path&gt;" class="s1" d="m98.87 57.19h-16.89v3.92h16.89z"/>
		</g>
	</g>
</svg>