<svg version="1.2" xmlns="http://www.w3.org/2000/svg" viewBox="0 0 150 150" width="150" height="150">
	<style>
		.s0 { fill: #000000 } 
		.s1 { fill: #ffffff } 
	</style>
	<g id="&lt;Group&gt;">
		<g id="&lt;Group&gt;">
			<path id="&lt;Compound Path&gt;" fill-rule="evenodd" class="s0" d="m146.69 99.35c0 26.51-21.49 48-48 48h-95.45v-95.45c0-26.51 21.49-48 48-48h95.45zm-95.45-89.46c-23.16 0-42 18.84-42 42v89.46h89.45c23.16 0 42-18.85 42-42v-89.46z"/>
		</g>
		<path id="&lt;Path&gt;" fill-rule="evenodd" class="s0" d="m74.97 129.02c-29.53 0-53.4-23.87-53.4-53.4 0-29.52 23.87-53.39 53.4-53.39 29.52 0 53.39 23.87 53.39 53.39 0 29.53-23.87 53.4-53.39 53.4z"/>
		<path id="&lt;Compound Path&gt;" fill-rule="evenodd" class="s1" d="m87.51 45.39c3.24 0.14 5.45 0.66 7.38 1.41 2 0.78 3.7 1.82 5.39 3.51 1.69 1.69 2.73 3.39 3.51 5.39 0.75 1.93 1.27 4.14 1.41 7.38 0.15 3.25 0.19 4.28 0.19 12.54 0 8.26-0.04 9.3-0.19 12.54-0.14 3.24-0.66 5.45-1.41 7.39-0.78 2-1.82 3.7-3.51 5.39-1.69 1.69-3.39 2.73-5.39 3.51-1.93 0.75-4.14 1.26-7.38 1.41-3.25 0.15-4.28 0.18-12.54 0.18-8.26 0-9.3-0.03-12.55-0.18-3.23-0.15-5.44-0.66-7.38-1.41-2-0.78-3.7-1.82-5.39-3.51-1.69-1.69-2.73-3.39-3.51-5.39-0.75-1.94-1.26-4.15-1.41-7.39-0.15-3.24-0.18-4.28-0.18-12.54 0-8.26 0.03-9.29 0.18-12.54 0.15-3.24 0.66-5.45 1.41-7.38 0.78-2 1.82-3.7 3.51-5.39 1.69-1.69 3.39-2.73 5.39-3.51 1.94-0.75 4.15-1.27 7.38-1.41 3.25-0.15 4.29-0.19 12.55-0.19 8.26 0 9.29 0.04 12.54 0.19zm-24.84 5.47c-2.96 0.14-4.57 0.63-5.64 1.05-1.42 0.55-2.44 1.21-3.5 2.27-1.07 1.07-1.73 2.08-2.28 3.5-0.41 1.07-0.91 2.68-1.05 5.65-0.14 3.21-0.17 4.17-0.17 12.29 0 8.13 0.03 9.09 0.17 12.29 0.14 2.97 0.64 4.58 1.05 5.65 0.55 1.42 1.21 2.44 2.28 3.5 1.06 1.07 2.08 1.72 3.5 2.28 1.07 0.41 2.68 0.91 5.64 1.04 3.21 0.15 4.17 0.18 12.3 0.18 8.12 0 9.08-0.03 12.29-0.18 2.96-0.13 4.58-0.63 5.65-1.04 1.42-0.56 2.43-1.21 3.5-2.28 1.06-1.06 1.72-2.08 2.27-3.5 0.42-1.07 0.91-2.68 1.05-5.65 0.14-3.2 0.18-4.16 0.18-12.29 0-8.12-0.04-9.08-0.18-12.29-0.14-2.97-0.63-4.58-1.05-5.65-0.55-1.42-1.21-2.43-2.27-3.5-1.07-1.06-2.08-1.72-3.5-2.27-1.07-0.42-2.69-0.91-5.65-1.05-3.21-0.15-4.17-0.18-12.29-0.18-8.12 0-9.09 0.03-12.3 0.18z"/>
		<path id="&lt;Compound Path&gt;" fill-rule="evenodd" class="s1" d="m74.97 91.24c-8.64 0-15.62-6.98-15.62-15.62 0-8.64 6.98-15.62 15.62-15.62 8.64 0 15.62 6.98 15.62 15.62 0 8.64-6.98 15.62-15.62 15.62zm10.14-15.62c0-5.61-4.54-10.14-10.14-10.14-5.61 0-10.14 4.53-10.14 10.14 0 5.61 4.53 10.14 10.14 10.14 5.6 0 10.14-4.53 10.14-10.14z"/>
		<path id="&lt;Path&gt;" fill-rule="evenodd" class="s1" d="m91.21 63.03c-2.02 0-3.66-1.63-3.66-3.65 0-2.01 1.64-3.65 3.66-3.65 2.01 0 3.65 1.64 3.65 3.65 0 2.02-1.64 3.65-3.65 3.65z"/>
	</g>
</svg>
