<svg version="1.2" xmlns="http://www.w3.org/2000/svg" viewBox="0 0 150 150" width="150" height="150">
	<style>
		.s0 { fill: #000000 } 
		.s1 { fill: #ffffff } 
	</style>
	<g id="&lt;Group&gt;">
		<g id="&lt;Group&gt;">
			<path id="&lt;Compound Path&gt;" fill-rule="evenodd" class="s0" d="m145.83 98.6c0 26.5-21.49 48-48 48h-95.46v-95.46c0-26.51 21.49-48 48-48h95.46zm-95.46-89.45c-23.16 0-42 18.84-42 42v89.45h89.46c23.16 0 42-18.84 42-42v-89.45z"/>
		</g>
		<path id="&lt;Path&gt;" class="s0" d="m20.71 74.87c0 29.49 23.9 53.39 53.39 53.39 29.49 0 53.39-23.9 53.39-53.39 0-29.49-23.9-53.39-53.39-53.39-29.49 0-53.39 23.9-53.39 53.39z"/>
		<g id="&lt;Group&gt;">
			<path id="&lt;Path&gt;" class="s1" d="m49.39 98.69h11.49v-37.1h-11.49z"/>
			<path id="&lt;Path&gt;" class="s1" d="m55.08 56.74c3.75 0 6.79-3.07 6.79-6.85 0-3.78-3.04-6.84-6.79-6.84-3.75 0-6.79 3.06-6.79 6.84 0 3.78 3.04 6.85 6.79 6.85z"/>
		</g>
		<path id="&lt;Path&gt;" class="s1" d="m79.23 79.22c0-5.22 2.4-8.33 7-8.33 4.22 0 6.25 2.99 6.25 8.33 0 5.34 0 19.47 0 19.47h11.43c0 0 0-13.55 0-23.49 0-9.93-5.64-14.74-13.5-14.74-7.87 0-11.18 6.13-11.18 6.13v-5h-11.01v37.1h11.01c0 0 0-13.76 0-19.47z"/>
	</g>
</svg>
